<svg xmlns="http://www.w3.org/2000/svg" width="256" height="256" fill="none"><g clip-path="url(#a)"><path fill="#F6F6FB" d="M225.83 0H30.17C13.508 0 0 13.508 0 30.17v195.66C0 242.492 13.508 256 30.17 256h195.66c16.662 0 30.17-13.508 30.17-30.17V30.17C256 13.508 242.492 0 225.83 0Z"/><path fill="#009E00" d="M192.83 75.4c0 5.02-3.08 9.39-7.45 11.18v106.18H63.17l34.18-54.51c-1.05-1.86-1.7-3.89-1.7-6.16 0-6.72 5.43-12.15 12.15-12.15 6.72 0 12.15 5.43 12.15 12.15 0 1.05-.16 2.02-.4 3l11.66 5.1c2.19-2.43 5.43-4.05 8.99-4.05 1.46 0 2.83.32 4.13.73l28.99-51.92a11.923 11.923 0 0 1-4.78-9.56c0-6.72 5.43-12.15 12.15-12.15 1.54 0 2.92.32 4.29.81l.4-.73v.89c4.37 1.78 7.45 6.16 7.45 11.18v.01Zm-15.55 109.26V94.43l-26.65 47.7c1.05 1.86 1.7 3.89 1.7 6.16 0 6.72-5.43 12.15-12.15 12.15-6.72 0-12.15-5.43-12.15-12.15l.08-.57-13.2-5.83c-2.02 1.46-4.45 2.35-7.13 2.35-1.46 0-2.83-.32-4.13-.81l-25.92 41.22h99.54l.01.01ZM202.92 191.5l-6.84 6.84 6.84 6.85v6.84l-13.69-13.69 13.69-13.69v6.85ZM207.49 212.03v-6.84l6.84-6.85-6.84-6.84v-6.85l13.69 13.69-13.69 13.69Z"/></g><defs><clipPath id="a"><path fill="#fff" d="M0 0h256v256H0z"/></clipPath></defs></svg>